<svg xmlns="http://www.w3.org/2000/svg" viewBox="0 0 24 24" fill="currentColor" aria-hidden="true"><path d="M12 .5a12 12 0 0 0-3.79 23.4c.6.11.82-.26.82-.58v-2.02c-3.34.72-4.04-1.61-4.04-1.61-.55-1.39-1.35-1.76-1.35-1.76-1.1-.75.08-.74.08-.74 1.22.09 1.86 1.25 1.86 1.25 1.08 1.85 2.83 1.32 3.52 1.01.11-.78.42-1.32.76-1.62-2.67-.3-5.47-1.33-5.47-5.92 0-1.31.47-2.38 1.24-3.22-.12-.3-.54-1.52.12-3.17 0 0 1.01-.32 3.3 1.23a11.5 11.5 0 0 1 6 0c2.28-1.55 3.29-1.23 3.29-1.23.66 1.65.24 2.87.12 3.17.77.84 1.24 1.91 1.24 3.22 0 4.6-2.8 5.62-5.48 5.91.43.37.81 1.1.81 2.22v3.29c0 .32.22.7.83.58A12 12 0 0 0 12 .5z"/></svg>
