<svg xmlns="http://www.w3.org/2000/svg" viewBox="0 0 24 24" fill="currentColor" aria-hidden="true"><path d="M9.19 6.35c-2.04 2.29-3.44 5.58-4.07 8.84-.18 1.01.49 1.96 1.52 2.09l1.53.2c.19 2.01.27 3.58-.45 4.83-.14.24-.05.55.19.69.24.14.55.05.69-.19.93-1.57.98-3.35.89-5.31l2.48.32c1.03.13 2.1-.52 2.28-1.53.63-3.26 2.03-6.55 4.07-8.84C16.5 4.5 14.5 4 12 4s-4.5.5-6.81 2.35zM12 6c1.66 0 3.14.39 4.5 1.09-1.8 1.87-3.06 4.68-3.67 7.61l-1.83-.24c.6-2.94 1.86-5.75 3.67-7.61C8.86 6.39 10.34 6 12 6zm-1 8.5c.28 0 .5.22.5.5s-.22.5-.5.5-.5-.22-.5-.5.22-.5.5-.5z"/></svg>
