<svg xmlns="http://www.w3.org/2000/svg" viewBox="0 0 24 24" fill="currentColor" aria-hidden="true"><path d="M6.5 10.5c0 .8.7 1.5 1.5 1.5h.5v3H7c-1.7 0-3-1.3-3-3v-1c0-1.7 1.3-3 3-3h1v1.5H7c-.8 0-1.5.7-1.5 1.5v1zm11 0c0-.8-.7-1.5-1.5-1.5h-.5V6h.5c1.7 0 3 1.3 3 3v1c0 1.7-1.3 3-3 3h-1v-1.5h1c.8 0 1.5-.7 1.5-1.5v-1zM12 4c-2.8 0-5.2 1.5-6.5 3.7L7 9.2c1-1.6 2.7-2.7 5-2.7s4 1.1 5 2.7l1.5-1.5C17.2 5.5 14.8 4 12 4zm0 16c2.8 0 5.2-1.5 6.5-3.7L17 14.8c-1 1.6-2.7 2.7-5 2.7s-4-1.1-5-2.7l-1.5 1.5C6.8 18.5 9.2 20 12 20z"/></svg>
