<svg xmlns="http://www.w3.org/2000/svg" viewBox="0 0 24 24" fill="currentColor" aria-hidden="true"><path d="M6 14a2 2 0 0 1-2 2 2 2 0 0 1-2-2 2 2 0 0 1 2-2h2v2zm1 0a2 2 0 0 1 2-2 2 2 0 0 1 2 2v5a2 2 0 0 1-2 2 2 2 0 0 1-2-2v-5zM14 6a2 2 0 0 1 2-2 2 2 0 0 1 2 2 2 2 0 0 1-2 2h-2V6zm0 1a2 2 0 0 1-2 2 2 2 0 0 1 2 2h5a2 2 0 0 1 2-2 2 2 0 0 1-2-2h-5zM18 14a2 2 0 0 1 2-2 2 2 0 0 1-2-2 2 2 0 0 1-2 2v2h2zm-1 0a2 2 0 0 1-2 2 2 2 0 0 1-2-2v-5a2 2 0 0 1 2-2 2 2 0 0 1 2 2v5zM10 18a2 2 0 0 1-2 2 2 2 0 0 1-2-2 2 2 0 0 1 2-2h2v2zm0-1a2 2 0 0 1 2-2 2 2 0 0 1 2 2v5a2 2 0 0 1-2 2 2 2 0 0 1-2-2v-5z"/></svg>
